<svg xmlns="http://www.w3.org/2000/svg" width="30" height="30" fill="none"><path fill="#F5FAFF" d="M0 0h30v29.988H0z"/><path fill="#000" fill-opacity=".1" d="M10.96 23.718q-.433.433-.923.465-.496.026-.898-.376l.248.02-.114.114.668.668-.573.572-4.648-4.643.573-.572 1.019 1.017.783.808.127-.127.02.248q-.396-.395-.37-.89.032-.503.459-.93.528-.526 1.197-.495t1.273.636l1.025 1.024q.6.597.63 1.266.033.667-.496 1.195m-.687-.305q.362-.363.356-.789-.006-.425-.414-.833l-.955-.954q-.408-.408-.834-.413-.427-.007-.79.356-.35.35-.337.782.019.426.414.82l.955.955q.395.394.821.413.433.013.784-.337m4.289-3.318q-.42.42-.885.566t-.936.02a2.1 2.1 0 0 1-.886-.554l-.93-.928q-.42-.42-.553-.885a1.63 1.63 0 0 1 .019-.934q.147-.465.567-.885t.885-.566.93-.012q.47.127.885.54l.936.935q.413.414.547.89.135.465-.013.93-.146.464-.566.883m-.51-.508q.375-.375.376-.796 0-.42-.408-.826l-.93-.929q-.406-.407-.827-.407t-.796.375q-.369.369-.376.795 0 .42.408.827l.93.929q.407.407.827.407.427-.007.796-.375m4.137-3.09q-.522.523-1.197.497-.67-.032-1.268-.63L14.7 15.34q-.605-.604-.636-1.272-.033-.668.496-1.196.434-.431.93-.458.496-.025.891.37l-.248-.02.127-.127-.808-.782-1.02-1.018.574-.572 4.648 4.643-.573.572-.668-.668-.115.115-.02-.248q.402.4.377.897-.033.489-.465.922m-.306-.686q.357-.357.338-.782-.02-.427-.414-.82l-.955-.955q-.396-.394-.822-.413t-.783.337q-.362.362-.357.788.008.427.414.834l.955.954q.408.407.834.413.427.006.79-.356m4.633-1.473-.847-1.877-4.584-1.984.636-.636 2.98 1.348q.153.064.344.178l.312.185-.184-.312a4 4 0 0 1-.185-.337l-1.401-2.926.618-.617 2.922 6.367z"/></svg>